0
SECTION
2
HEADER
9
$INSUNITS
70
4
9
$ACADVER
1
AC1014
9
$HANDSEED
5
FFFF
0
ENDSEC
0
SECTION
2
TABLES
0
TABLE
2
VPORT
5
8
100
AcDbSymbolTable
0
ENDTAB
0
TABLE
2
LTYPE
5
5
100
AcDbSymbolTable
0
LTYPE
5
14
100
AcDbSymbolTableRecord
100
AcDbLinetypeTableRecord
2
BYBLOCK
70
0
0
LTYPE
5
15
100
AcDbSymbolTableRecord
100
AcDbLinetypeTableRecord
2
BYLAYER
70
0
0
ENDTAB
0
TABLE
2
LAYER
5
2
100
AcDbSymbolTable
70
2
0
LAYER
5
50
100
AcDbSymbolTableRecord
100
AcDbLayerTableRecord
2
0
70
0
6
CONTINUOUS
0
ENDTAB
0
TABLE
2
STYLE
5
3
100
AcDbSymbolTable
70
1
0
STYLE
5
11
100
AcDbSymbolTableRecord
100
AcDbTextStyleTableRecord
2
STANDARD
70
0
0
ENDTAB
0
TABLE
2
VIEW
5
6
100
AcDbSymbolTable
70
0
0
ENDTAB
0
TABLE
2
UCS
5
7
100
AcDbSymbolTable
70
0
0
ENDTAB
0
TABLE
2
APPID
5
9
100
AcDbSymbolTable
70
2
0
APPID
5
12
100
AcDbSymbolTableRecord
100
AcDbRegAppTableRecord
2
ACAD
70
0
0
ENDTAB
0
TABLE
2
DIMSTYLE
5
A
100
AcDbSymbolTable
70
1
0
ENDTAB
0
TABLE
2
BLOCK_RECORD
5
1
100
AcDbSymbolTable
70
1
0
BLOCK_RECORD
5
1F
100
AcDbSymbolTableRecord
100
AcDbBlockTableRecord
2
*MODEL_SPACE
0
BLOCK_RECORD
5
1B
100
AcDbSymbolTableRecord
100
AcDbBlockTableRecord
2
*PAPER_SPACE
0
ENDTAB
0
ENDSEC
0
SECTION
2
BLOCKS
0
BLOCK
5
20
100
AcDbEntity
100
AcDbBlockBegin
2
*MODEL_SPACE
0
ENDBLK
5
21
100
AcDbEntity
100
AcDbBlockEnd
0
BLOCK
5
1C
100
AcDbEntity
100
AcDbBlockBegin
2
*PAPER_SPACE
0
ENDBLK
5
1D
100
AcDbEntity
100
AcDbBlockEnd
0
ENDSEC
0
SECTION
2
ENTITIES
0
LWPOLYLINE
5
100
100
AcDbEntity
8
0
100
AcDbPolyline
90
24
70
1
43
0.0
10
31.350696287782831
20
37.798590322282458
42
0.19657831739816109
10
33.93176709837369
20
44.104316699273909
10
33.948598731712991
20
98.438916159572159
42
0.19776316188390722
10
25.985846170458782
20
117.80062635387677
10
19.150178295469665
20
124.70130353364978
42
-0.36580184445198749
10
18.639015924860772
20
131.13363219228731
10
32.943468711355315
20
151.08325516846247
42
-0.20644573621069306
10
34.640197716683801
20
152.10392986706756
10
37.306235285764394
20
132.38549074202399
42
0.99999999999999989
10
38.110152398274202
20
126.43959154373496
10
41.449621799191483
20
101.74034317018581
10
41.432674113558328
20
47.031112515367958
42
0.16140137219962705
10
44.794768017265731
20
36.876583293466965
42
-0.42396250412868436
10
42.735299384867346
20
24.291622751779386
10
36.459698090677087
20
19.937117780288055
42
0.3178372451957826
10
36.978679075544505
20
18.284647285136614
10
37.444656652121168
20
17.929667498901733
10
36.232679851589751
20
16.338720537191943
10
23.505104157911411
20
26.034534941443322
10
24.717080958442832
20
27.625481903153105
10
25.114817698870283
20
27.322487703020254
42
0.41421356237309503
10
27.217010520551188
20
27.606715323904037
10
27.24115508159505
20
27.638409590673568
10
29.177842862432243
20
34.12002425349074
42
-0.12219535697958936
0
LWPOLYLINE
5
101
100
AcDbEntity
8
0
100
AcDbPolyline
90
4
70
1
43
0.0
10
33.750502661043122
20
121.74203395521428
42
0.99999999999999989
10
31.364082218478408
20
123.55999915601139
10
30.455099595645084
20
122.36678892372109
42
0.99999999999999989
10
32.841520051754685
20
120.54882374070422
0
LWPOLYLINE
5
102
100
AcDbEntity
8
0
100
AcDbPolyline
90
4
70
1
43
0.0
10
28.844476439844009
20
134.27921493314409
10
30.037686654354086
20
133.37023232385567
42
0.99999999999999989
10
31.85565185515123
20
135.75665276642036
10
30.662441622860904
20
136.66563538925368
42
0.99999999999999989
0
CIRCLE
5
103
100
AcDbEntity
8
0
100
AcDbCircle
10
37.677887600404603
20
31.580235383436946
30
0
40
2.5
210
0
220
-0
230
1
0
ENDSEC
0
SECTION
2
OBJECTS
0
DICTIONARY
5
C
100
AcDbDictionary
3
ACAD_GROUP
350
D
3
ACAD_MLINESTYLE
350
17
0
DICTIONARY
5
D
100
AcDbDictionary
0
DICTIONARY
5
1A
330
C
100
AcDbDictionary
0
DICTIONARY
5
17
100
AcDbDictionary
0
ENDSEC
0
EOF
