0
SECTION
2
HEADER
9
$INSUNITS
70
4
9
$ACADVER
1
AC1014
9
$HANDSEED
5
FFFF
0
ENDSEC
0
SECTION
2
TABLES
0
TABLE
2
VPORT
5
8
100
AcDbSymbolTable
0
ENDTAB
0
TABLE
2
LTYPE
5
5
100
AcDbSymbolTable
0
LTYPE
5
14
100
AcDbSymbolTableRecord
100
AcDbLinetypeTableRecord
2
BYBLOCK
70
0
0
LTYPE
5
15
100
AcDbSymbolTableRecord
100
AcDbLinetypeTableRecord
2
BYLAYER
70
0
0
ENDTAB
0
TABLE
2
LAYER
5
2
100
AcDbSymbolTable
70
2
0
LAYER
5
50
100
AcDbSymbolTableRecord
100
AcDbLayerTableRecord
2
0
70
0
6
CONTINUOUS
0
ENDTAB
0
TABLE
2
STYLE
5
3
100
AcDbSymbolTable
70
1
0
STYLE
5
11
100
AcDbSymbolTableRecord
100
AcDbTextStyleTableRecord
2
STANDARD
70
0
0
ENDTAB
0
TABLE
2
VIEW
5
6
100
AcDbSymbolTable
70
0
0
ENDTAB
0
TABLE
2
UCS
5
7
100
AcDbSymbolTable
70
0
0
ENDTAB
0
TABLE
2
APPID
5
9
100
AcDbSymbolTable
70
2
0
APPID
5
12
100
AcDbSymbolTableRecord
100
AcDbRegAppTableRecord
2
ACAD
70
0
0
ENDTAB
0
TABLE
2
DIMSTYLE
5
A
100
AcDbSymbolTable
70
1
0
ENDTAB
0
TABLE
2
BLOCK_RECORD
5
1
100
AcDbSymbolTable
70
1
0
BLOCK_RECORD
5
1F
100
AcDbSymbolTableRecord
100
AcDbBlockTableRecord
2
*MODEL_SPACE
0
BLOCK_RECORD
5
1B
100
AcDbSymbolTableRecord
100
AcDbBlockTableRecord
2
*PAPER_SPACE
0
ENDTAB
0
ENDSEC
0
SECTION
2
BLOCKS
0
BLOCK
5
20
100
AcDbEntity
100
AcDbBlockBegin
2
*MODEL_SPACE
0
ENDBLK
5
21
100
AcDbEntity
100
AcDbBlockEnd
0
BLOCK
5
1C
100
AcDbEntity
100
AcDbBlockBegin
2
*PAPER_SPACE
0
ENDBLK
5
1D
100
AcDbEntity
100
AcDbBlockEnd
0
ENDSEC
0
SECTION
2
ENTITIES
0
SPLINE
5
100
100
AcDbEntity
8
0
100
AcDbSpline
70
4
71
5
72
21
73
15
74
0
42
0.000000001
43
0.0000000001
44
0.0000000001
40
0
40
0
40
0
40
0
40
0
40
0
40
0.10000000000000001
40
0.20000000000000001
40
0.30000000000000004
40
0.40000000000000002
40
0.5
40
0.59999999999999998
40
0.69999999999999996
40
0.79999999999999993
40
0.89999999999999991
40
1
40
1
40
1
40
1
40
1
40
1
41
1
41
1
41
1
41
1
41
1
41
1
41
1
41
1
41
1
41
1
41
1
41
1
41
1
41
1
41
1
10
151.47324434307487
20
-10.126442657284001
30
0
10
151.20510137067546
20
-9.9483609467457956
30
0
10
150.67976211757738
20
-9.5901376688297741
30
0
10
149.92459114379022
20
-9.0466235896268561
30
0
10
148.98447156014481
20
-8.3093729809329027
30
0
10
147.92851970443775
20
-7.3653801086789858
30
0
10
147.00365168669242
20
-6.3967209767286555
30
0
10
146.22268749528646
20
-5.400983226944863
30
0
10
145.59595580725892
20
-4.3762232953108215
30
0
10
145.12295152676427
20
-3.3225362265335052
30
0
10
144.79439272202754
20
-2.241668616859998
30
0
10
144.63878637088513
20
-1.3567948729765069
30
0
10
144.57874413360895
20
-0.68247728506134808
30
0
10
144.56349486908857
20
-0.22826954159276192
30
0
10
144.56206477524833
20
-3.3454852128710028e-08
30
0
0
SPLINE
5
101
100
AcDbEntity
8
0
100
AcDbSpline
70
4
71
5
72
16
73
10
74
0
42
0.000000001
43
0.0000000001
44
0.0000000001
40
0
40
0
40
0
40
0
40
0
40
0
40
0.066666666666666666
40
0.13333333333333333
40
0.20000000000000001
40
0.26666666666666666
40
0.30338823841044837
40
0.30338823841044837
40
0.30338823841044837
40
0.30338823841044837
40
0.30338823841044837
40
0.30338823841044837
41
1
41
1
41
1
41
1
41
1
41
1
41
1
41
1
41
1
41
1
10
155.31259321932862
20
-11.000000188971544
30
0
10
155.17544453134136
20
-11.006573047459533
30
0
10
154.89456484768721
20
-11.009616120736695
30
0
10
154.45349779401369
20
-10.983876653290395
30
0
10
153.82563158557903
20
-10.888474971528838
30
0
10
153.04830720988514
20
-10.687775058140485
30
0
10
152.39459716581246
20
-10.470964895823982
30
0
10
151.89810634892069
20
-10.288729907849712
30
0
10
151.5856121510605
20
-10.16968934666933
30
0
10
151.4732443430749
20
-10.126442657283999
30
0
0
LINE
5
102
100
AcDbEntity
8
0
100
AcDbLine
10
155.31259321932862
20
-11.000000188971544
30
0
11
175.00000260770332
21
-11.000000163912469
31
0
0
ARC
5
103
100
AcDbEntity
8
0
100
AcDbCircle
10
168.88390890444984
20
7.3491373927834953
30
0
40
19.341598984094542
210
0
220
0
230
1
100
AcDbArc
50
288.43414653414413
51
313.34161037538439
0
LINE
5
104
100
AcDbEntity
8
0
100
AcDbLine
10
182.15895170032672
20
-6.7175143065074021
30
0
11
187.35043349767409
21
-1.8181862481683568
31
0
0
ARC
5
105
100
AcDbEntity
8
0
100
AcDbCircle
10
185.63456672925327
20
6.1201044232461754e-14
30
0
40
2.4999999999999338
210
0
220
0
230
1
100
AcDbArc
50
313.34161030245588
51
359.99999716835316
0
SPLINE
5
106
100
AcDbEntity
8
0
100
AcDbSpline
70
4
71
5
72
21
73
15
74
0
42
0.000000001
43
0.0000000001
44
0.0000000001
40
0
40
0
40
0
40
0
40
0
40
0
40
0.10000000000000001
40
0.20000000000000001
40
0.30000000000000004
40
0.40000000000000002
40
0.5
40
0.59999999999999998
40
0.69999999999999996
40
0.79999999999999993
40
0.89999999999999991
40
1
40
1
40
1
40
1
40
1
40
1
41
1
41
1
41
1
41
1
41
1
41
1
41
1
41
1
41
1
41
1
41
1
41
1
41
1
41
1
41
1
10
151.47324436885347
20
10.126442505870813
30
0
10
151.20510139600074
20
9.9483607960152103
30
0
10
150.67976214199072
20
9.5901375194365297
30
0
10
149.92459116681997
20
9.0466234421560277
30
0
10
148.98447158129775
20
8.3093728358553118
30
0
10
147.92851972318761
20
7.3653799662895016
30
0
10
147.00365170297638
20
6.3967208366935822
30
0
10
146.22268750903558
20
5.4009830888978687
30
0
10
145.59595581839932
20
4.3762231588592808
30
0
10
145.12295153522234
20
3.3225360912860773
30
0
10
144.79439272773408
20
2.2416684824489734
30
0
10
144.63878637433908
20
1.3567947389616051
30
0
10
144.57874413534631
20
0.68247715119929397
30
0
10
144.56349486966968
20
0.22826940776952745
30
0
10
144.56206477524833
20
-1.003647418135973e-07
30
0
0
SPLINE
5
107
100
AcDbEntity
8
0
100
AcDbSpline
70
4
71
5
72
16
73
10
74
0
42
0.000000001
43
0.0000000001
44
0.0000000001
40
0
40
0
40
0
40
0
40
0
40
0
40
0.066666666666666666
40
0.13333333333333333
40
0.20000000000000001
40
0.26666666666666666
40
0.30338823841044837
40
0.30338823841044837
40
0.30338823841044837
40
0.30338823841044837
40
0.30338823841044837
40
0.30338823841044837
41
1
41
1
41
1
41
1
41
1
41
1
41
1
41
1
41
1
41
1
10
155.31259324733102
20
11.000000027784631
30
0
10
155.17544455936047
20
11.006572886621758
30
0
10
154.89456487571408
20
11.009615960613946
30
0
10
154.45349782197502
20
10.983876494290456
30
0
10
153.8256316132975
20
10.888474814127242
30
0
10
153.0483072370927
20
10.687774902717702
30
0
10
152.39459719246807
20
10.470964742065332
30
0
10
151.89810637511241
20
10.288729755354964
30
0
10
151.58561217694921
20
10.16968919497009
30
0
10
151.4732443688535
20
10.126442505870809
30
0
0
ARC
5
108
100
AcDbEntity
8
0
100
AcDbCircle
10
168.88390888574136
20
-7.3491375885185262
30
0
40
19.341598984094528
210
0
220
-0
230
1
100
AcDbArc
50
46.658389478759347
51
71.56585331999969
0
LINE
5
109
100
AcDbEntity
8
0
100
AcDbLine
10
182.15895171742733
20
6.7175140769784676
30
0
11
187.35043350230259
21
1.8181860054236143
31
0
0
ARC
5
110
100
AcDbEntity
8
0
100
AcDbCircle
10
185.63456672925327
20
-2.383767700664796e-07
30
0
40
2.4999999999999316
210
0
220
-0
230
1
100
AcDbArc
50
2.561320938754782e-06
51
46.658389551687868
0
LINE
5
111
100
AcDbEntity
8
0
100
AcDbLine
10
155.31259324733099
20
11.000000027784631
30
0
11
175.0000026357057
21
10.999999952607869
31
0
0
ARC
5
112
100
AcDbEntity
8
0
100
AcDbCircle
10
165.23671262767232
20
-1.8645057218769116e-07
30
0
40
3.0000000000000444
210
0
220
-0
230
1
100
AcDbArc
50
1.7075472925031877e-06
51
179.99999914622637
0
ARC
5
113
100
AcDbEntity
8
0
100
AcDbCircle
10
165.23671262767232
20
1.0774419415053245e-13
30
0
40
3.0000000000000431
210
0
220
0
230
1
100
AcDbArc
50
180.00000085377366
51
359.99999829245274
0
CIRCLE
5
114
100
AcDbEntity
8
0
100
AcDbCircle
10
171.95422705749482
20
-6.7175143194964635
30
0
40
1.4999999999999858
210
0
220
-0
230
1
0
ARC
5
115
100
AcDbEntity
8
0
100
AcDbCircle
10
158.51919821495048
20
-6.7175143365970635
30
0
40
1.4999999820572536
210
0
220
0
230
1
100
AcDbArc
50
-224.99999748202785
51
130.47193915652886
0
CIRCLE
5
116
100
AcDbEntity
8
0
100
AcDbCircle
10
158.51919823205105
20
6.7175141672471845
30
0
40
1.4999999997967781
210
0
220
0
230
1
0
CIRCLE
5
117
100
AcDbEntity
8
0
100
AcDbCircle
10
171.95422707459542
20
6.717514115945411
30
0
40
1.4999999999999858
210
0
220
-0
230
1
0
ENDSEC
0
SECTION
2
OBJECTS
0
DICTIONARY
5
C
100
AcDbDictionary
3
ACAD_GROUP
350
D
3
ACAD_MLINESTYLE
350
17
0
DICTIONARY
5
D
100
AcDbDictionary
0
DICTIONARY
5
1A
330
C
100
AcDbDictionary
0
DICTIONARY
5
17
100
AcDbDictionary
0
ENDSEC
0
EOF
