0
SECTION
2
HEADER
9
$INSUNITS
70
4
9
$ACADVER
1
AC1014
9
$HANDSEED
5
FFFF
0
ENDSEC
0
SECTION
2
TABLES
0
TABLE
2
VPORT
5
8
100
AcDbSymbolTable
0
ENDTAB
0
TABLE
2
LTYPE
5
5
100
AcDbSymbolTable
0
LTYPE
5
14
100
AcDbSymbolTableRecord
100
AcDbLinetypeTableRecord
2
BYBLOCK
70
0
0
LTYPE
5
15
100
AcDbSymbolTableRecord
100
AcDbLinetypeTableRecord
2
BYLAYER
70
0
0
ENDTAB
0
TABLE
2
LAYER
5
2
100
AcDbSymbolTable
70
2
0
LAYER
5
50
100
AcDbSymbolTableRecord
100
AcDbLayerTableRecord
2
0
70
0
6
CONTINUOUS
0
ENDTAB
0
TABLE
2
STYLE
5
3
100
AcDbSymbolTable
70
1
0
STYLE
5
11
100
AcDbSymbolTableRecord
100
AcDbTextStyleTableRecord
2
STANDARD
70
0
0
ENDTAB
0
TABLE
2
VIEW
5
6
100
AcDbSymbolTable
70
0
0
ENDTAB
0
TABLE
2
UCS
5
7
100
AcDbSymbolTable
70
0
0
ENDTAB
0
TABLE
2
APPID
5
9
100
AcDbSymbolTable
70
2
0
APPID
5
12
100
AcDbSymbolTableRecord
100
AcDbRegAppTableRecord
2
ACAD
70
0
0
ENDTAB
0
TABLE
2
DIMSTYLE
5
A
100
AcDbSymbolTable
70
1
0
ENDTAB
0
TABLE
2
BLOCK_RECORD
5
1
100
AcDbSymbolTable
70
1
0
BLOCK_RECORD
5
1F
100
AcDbSymbolTableRecord
100
AcDbBlockTableRecord
2
*MODEL_SPACE
0
BLOCK_RECORD
5
1B
100
AcDbSymbolTableRecord
100
AcDbBlockTableRecord
2
*PAPER_SPACE
0
ENDTAB
0
ENDSEC
0
SECTION
2
BLOCKS
0
BLOCK
5
20
100
AcDbEntity
100
AcDbBlockBegin
2
*MODEL_SPACE
0
ENDBLK
5
21
100
AcDbEntity
100
AcDbBlockEnd
0
BLOCK
5
1C
100
AcDbEntity
100
AcDbBlockBegin
2
*PAPER_SPACE
0
ENDBLK
5
1D
100
AcDbEntity
100
AcDbBlockEnd
0
ENDSEC
0
SECTION
2
ENTITIES
0
LINE
5
100
100
AcDbEntity
8
0
100
AcDbLine
10
14.530354239553976
20
49.126548196459687
30
0
11
16.828451248208573
21
46.828451187805086
31
0
0
LINE
5
101
100
AcDbEntity
8
0
100
AcDbLine
10
14.530354239553976
20
49.126548196459687
30
0
11
25.257176479039039
21
59.853370556751486
31
0
0
LINE
5
102
100
AcDbEntity
8
0
100
AcDbLine
10
25.257176479039039
20
59.853370556751486
30
0
11
29.853370556751596
21
55.257176479038925
31
0
0
LINE
5
103
100
AcDbEntity
8
0
100
AcDbLine
10
29.853370556751596
20
55.257176479038925
30
0
11
19.12654825686317
21
44.530354179150478
31
0
0
LINE
5
104
100
AcDbEntity
8
0
100
AcDbLine
10
19.12654825686317
20
44.530354179150478
30
0
11
16.828451248208573
21
46.828451187805086
31
0
0
SPLINE
5
105
100
AcDbEntity
8
0
100
AcDbSpline
70
4
71
5
72
21
73
15
74
0
42
0.000000001
43
0.0000000001
44
0.0000000001
40
0
40
0
40
0
40
0
40
0
40
0
40
0.10000000000000001
40
0.20000000000000001
40
0.30000000000000004
40
0.40000000000000002
40
0.5
40
0.59999999999999998
40
0.69999999999999996
40
0.79999999999999993
40
0.89999999999999991
40
1
40
1
40
1
40
1
40
1
40
1
41
1
41
1
41
1
41
1
41
1
41
1
41
1
41
1
41
1
41
1
41
1
41
1
41
1
41
1
41
1
10
24.874532823014203
20
36.489756512163844
30
0
10
24.709006153857423
20
36.655283181320627
30
0
10
24.417373228162475
20
36.980575198988952
30
0
10
24.09815945520679
20
37.451229540315374
30
0
10
23.880042101382188
20
38.045764866849765
30
0
10
23.797337289650372
20
38.744176269934279
30
0
10
23.722053815227287
20
39.414095359950409
30
0
10
23.491468563775875
20
40.077978482446248
30
0
10
23.025881497822244
20
40.766146668954299
30
0
10
22.320073209976599
20
41.514734615837263
30
0
10
21.40662808733812
20
42.361750279626278
30
0
10
20.549416045426092
20
43.146793030819836
30
0
10
19.855391374935238
20
43.808657606391833
30
0
10
19.372812348191406
20
44.284090087822243
30
0
10
19.12654825686317
20
44.530354179150478
30
0
0
ARC
5
106
100
AcDbEntity
8
0
100
AcDbCircle
10
31.147541991347243
20
42.762765680496891
30
0
40
8.8713746427473534
210
0
220
0
230
1
100
AcDbArc
50
221.47121437740756
51
298.43802037415401
0
ARC
5
107
100
AcDbEntity
8
0
100
AcDbCircle
10
-45.372524254165057
20
16.495887246433163
30
0
40
20.999999999999911
210
0
220
0
230
-1
100
AcDbArc
50
61.561979625845908
51
95.611656333094999
0
SPLINE
5
108
100
AcDbEntity
8
0
100
AcDbSpline
70
4
71
5
72
26
73
20
74
0
42
0.000000001
43
0.0000000001
44
0.0000000001
40
0
40
0
40
0
40
0
40
0
40
0
40
0.066666666666666666
40
0.13333333333333333
40
0.20000000000000001
40
0.26666666666666666
40
0.33333333333333331
40
0.39999999999999997
40
0.46666666666666662
40
0.53333333333333333
40
0.59999999999999998
40
0.66666666666666663
40
0.73333333333333328
40
0.79999999999999993
40
0.86666666666666659
40
0.93333333333333324
40
1
40
1
40
1
40
1
40
1
40
1
41
1
41
1
41
1
41
1
41
1
41
1
41
1
41
1
41
1
41
1
41
1
41
1
41
1
41
1
41
1
41
1
41
1
41
1
41
1
41
1
10
29.853370556751596
20
55.257176479038925
30
0
10
29.89017466788404
20
55.221274191194574
30
0
10
29.969484413818165
20
55.144981638418791
30
0
10
30.105553945707371
20
55.017079324539715
30
0
10
30.321435420109836
20
54.819416297735344
30
0
10
30.651485080451781
20
54.526390914262073
30
0
10
31.047386040512329
20
54.187221158206988
30
0
10
31.518546599055068
20
53.803339668760437
30
0
10
32.076662929984707
20
53.377369769180035
30
0
10
32.733635560729262
20
52.91256962067564
30
0
10
33.499698708171472
20
52.412479276827504
30
0
10
34.380490822847229
20
51.880641646672522
30
0
10
35.376195495712103
20
51.320395790912912
30
0
10
36.48405945171114
20
50.734688615417134
30
0
10
37.699677899713748
20
50.125962952320897
30
0
10
39.01832469003908
20
49.496091920886052
30
0
10
40.15234938003637
20
48.9763069335296
30
0
10
41.046090350202419
20
48.577853963356617
30
0
10
41.660988336076421
20
48.30841783004422
30
0
10
41.973205036959484
20
48.172749552427277
30
0
0
SPLINE
5
109
100
AcDbEntity
8
0
100
AcDbSpline
70
4
71
5
72
21
73
15
74
0
42
0.000000001
43
0.0000000001
44
0.0000000001
40
0
40
0
40
0
40
0
40
0
40
0
40
0.10000000000000001
40
0.20000000000000001
40
0.30000000000000004
40
0.40000000000000002
40
0.5
40
0.59999999999999998
40
0.69999999999999996
40
0.79999999999999993
40
0.89999999999999991
40
1
40
1
40
1
40
1
40
1
40
1
41
1
41
1
41
1
41
1
41
1
41
1
41
1
41
1
41
1
41
1
41
1
41
1
41
1
41
1
41
1
10
41.973205036959484
20
48.172749552427277
30
0
10
42.193828140492769
20
48.071338775949656
30
0
10
42.638283524831181
20
47.871195383193488
30
0
10
43.314594149947958
20
47.579014788671174
30
0
10
44.235913379881325
20
47.205773891778449
30
0
10
45.422344439497813
20
46.768249471160914
30
0
10
46.646463065419866
20
46.362176519739165
30
0
10
47.911030908436331
20
45.989859722674552
30
0
10
49.21696934448601
20
45.652067997408707
30
0
10
50.562023729546311
20
45.346919772010367
30
0
10
51.942973998911917
20
45.071727800373829
30
0
10
53.073964195720755
20
44.873463974265661
30
0
10
53.936003311264713
20
44.736279694686665
30
0
10
54.516727153270097
20
44.649856651096115
30
0
10
54.808596932234238
20
44.60790348458638
30
0
0
LINE
5
110
100
AcDbEntity
8
0
100
AcDbLine
10
101.73889720887523
20
39.996707761929187
30
0
11
54.808596932234238
21
44.60790348458638
31
0
0
SPLINE
5
111
100
AcDbEntity
8
0
100
AcDbSpline
70
4
71
5
72
31
73
25
74
0
42
0.000000001
43
0.0000000001
44
0.0000000001
40
0
40
0
40
0
40
0
40
0
40
0
40
0.050000000000000003
40
0.10000000000000001
40
0.15000000000000002
40
0.20000000000000001
40
0.25
40
0.29999999999999999
40
0.34999999999999998
40
0.39999999999999997
40
0.44999999999999996
40
0.49999999999999994
40
0.54999999999999993
40
0.59999999999999998
40
0.65000000000000002
40
0.70000000000000007
40
0.75000000000000011
40
0.80000000000000016
40
0.8500000000000002
40
0.90000000000000024
40
0.95000000000000029
40
1
40
1
40
1
40
1
40
1
40
1
41
1
41
1
41
1
41
1
41
1
41
1
41
1
41
1
41
1
41
1
41
1
41
1
41
1
41
1
41
1
41
1
41
1
41
1
41
1
41
1
41
1
41
1
41
1
41
1
41
1
10
111.55010766808937
20
29.624555280421912
30
0
10
111.18698999752564
20
29.675071390540939
30
0
10
110.46303943770327
20
29.776304296599029
30
0
10
109.38396763136383
20
29.928755627665726
30
0
10
107.95897221644113
20
30.133235647875509
30
0
10
106.19912825874417
20
30.390690419758162
30
0
10
104.45549809418075
20
30.649447289619715
30
0
10
102.71710018599254
20
30.908314423506546
30
0
10
100.96529920011906
20
31.165310712388532
30
0
10
99.175636491372771
20
31.418761700100472
30
0
10
97.319319738126552
20
31.6682430746615
30
0
10
95.36477140358231
20
31.915726621462213
30
0
10
93.279229504465761
20
32.166316849110949
30
0
10
91.030662686201694
20
32.426924406518928
30
0
10
88.589884034348202
20
32.705185409868889
30
0
10
85.932533985095105
20
33.008379519039039
30
0
10
83.042016990676743
20
33.342126030615759
30
0
10
79.910187554551285
20
33.709852141751959
30
0
10
76.534485596950731
20
34.113484639794329
30
0
10
72.91623858082653
20
34.553792958984666
30
0
10
69.058833551159154
20
35.030813005632517
30
0
10
65.784776010592935
20
35.441507197753388
30
0
10
63.224876942235369
20
35.765685874514681
30
0
10
61.472085973866214
20
35.988955029549928
30
0
10
60.584142558891031
20
36.102377123454815
30
0
0
LINE
5
112
100
AcDbEntity
8
0
100
AcDbLine
10
47.426016986053874
20
37.395245313131667
30
0
11
60.584142558891031
21
36.102377123454815
31
0
0
LINE
5
113
100
AcDbEntity
8
0
100
AcDbLine
10
111.55010766808937
20
29.624555280421912
30
0
11
125.86126787249879
21
29.624555289529795
31
0
0
ARC
5
114
100
AcDbEntity
8
0
100
AcDbCircle
10
-128.86126787249881
20
29.624555244826375
30
0
40
3.0000000000000431
210
0
220
0
230
-1
100
AcDbArc
50
8.5377364625159387e-07
51
180
0
LINE
5
115
100
AcDbEntity
8
0
100
AcDbLine
10
131.86126787249887
20
29.624555341870224
30
0
11
151.7591219740797
21
29.624555367196862
31
0
0
ARC
5
116
100
AcDbEntity
8
0
100
AcDbCircle
10
149.25912197407985
20
29.624555244826478
30
0
40
2.4999999999998579
210
-0
220
0
230
1
100
AcDbArc
50
0
51
46.658389697542226
0
LINE
5
117
100
AcDbEntity
8
0
100
AcDbLine
10
150.97498874250061
20
31.442741492994717
30
0
11
145.78350693660292
21
36.342069666098475
31
0
0
ARC
5
118
100
AcDbEntity
8
0
100
AcDbCircle
10
132.50846414927634
20
22.275417852043109
30
0
40
19.341598984094503
210
0
220
-0
230
1
100
AcDbArc
50
46.658389624615531
51
71.565853465855909
0
LINE
5
119
100
AcDbEntity
8
0
100
AcDbLine
10
138.62455785252979
20
40.624555408739042
30
0
11
118.93714846415509
21
40.624555433798115
31
0
0
SPLINE
5
120
100
AcDbEntity
8
0
100
AcDbSpline
70
4
71
5
72
26
73
20
74
0
42
0.000000001
43
0.0000000001
44
0.0000000001
40
0
40
0
40
0
40
0
40
0
40
0
40
0.066666666666666666
40
0.13333333333333333
40
0.20000000000000001
40
0.26666666666666666
40
0.33333333333333331
40
0.39999999999999997
40
0.46666666666666662
40
0.53333333333333333
40
0.59999999999999998
40
0.66666666666666663
40
0.73333333333333328
40
0.79999999999999993
40
0.86666666666666659
40
0.93333333333333324
40
1
40
1
40
1
40
1
40
1
40
1
41
1
41
1
41
1
41
1
41
1
41
1
41
1
41
1
41
1
41
1
41
1
41
1
41
1
41
1
41
1
41
1
41
1
41
1
41
1
41
1
10
118.93714846415509
20
40.624555433798115
30
0
10
118.81016189290233
20
40.630641272277273
30
0
10
118.55607156671284
20
40.630771548366091
30
0
10
118.17459746546406
20
40.594839311688247
30
0
10
117.6491318990025
20
40.483218324185103
30
0
10
116.88731608551812
20
40.282758818223243
30
0
10
115.94695018493411
20
40.073589677139864
30
0
10
114.80508630350249
20
39.896075039453919
30
0
10
113.51834553744649
20
39.765902468071019
30
0
10
112.18102797554876
20
39.683560455838105
30
0
10
110.89633568007243
20
39.639723976025714
30
0
10
109.74216732914752
20
39.621875200573335
30
0
10
108.74114102387426
20
39.619789500079591
30
0
10
107.82053722752158
20
39.632229534959635
30
0
10
106.84020696563576
20
39.664964020853532
30
0
10
105.62970788867709
20
39.72757623242402
30
0
10
104.34285063467598
20
39.810127425998388
30
0
10
103.13993804218592
20
39.894292286248771
30
0
10
102.2247803740815
20
39.960831106861662
30
0
10
101.73889720887523
20
39.996707761929187
30
0
0
CIRCLE
5
121
100
AcDbEntity
8
0
100
AcDbCircle
10
122.14375345977693
20
36.342069581423644
30
0
40
1.5000000000000102
210
0
220
0
230
1
0
CIRCLE
5
122
100
AcDbEntity
8
0
100
AcDbCircle
10
135.57878230232134
20
36.342069564322955
30
0
40
1.4999999999999969
210
0
220
0
230
1
0
CIRCLE
5
123
100
AcDbEntity
8
0
100
AcDbCircle
10
31.147541991347243
20
42.762765680496891
30
0
40
2.5
210
0
220
0
230
1
0
CIRCLE
5
124
100
AcDbEntity
8
0
100
AcDbCircle
10
21.893949052156035
20
51.893948991752538
30
0
40
1.5000000000000002
210
0
220
0
230
1
0
ENDSEC
0
SECTION
2
OBJECTS
0
DICTIONARY
5
C
100
AcDbDictionary
3
ACAD_GROUP
350
D
3
ACAD_MLINESTYLE
350
17
0
DICTIONARY
5
D
100
AcDbDictionary
0
DICTIONARY
5
1A
330
C
100
AcDbDictionary
0
DICTIONARY
5
17
100
AcDbDictionary
0
ENDSEC
0
EOF
