0
SECTION
2
HEADER
9
$INSUNITS
70
4
9
$ACADVER
1
AC1014
9
$HANDSEED
5
FFFF
0
ENDSEC
0
SECTION
2
TABLES
0
TABLE
2
VPORT
5
8
100
AcDbSymbolTable
0
ENDTAB
0
TABLE
2
LTYPE
5
5
100
AcDbSymbolTable
0
LTYPE
5
14
100
AcDbSymbolTableRecord
100
AcDbLinetypeTableRecord
2
BYBLOCK
70
0
0
LTYPE
5
15
100
AcDbSymbolTableRecord
100
AcDbLinetypeTableRecord
2
BYLAYER
70
0
0
ENDTAB
0
TABLE
2
LAYER
5
2
100
AcDbSymbolTable
70
2
0
LAYER
5
50
100
AcDbSymbolTableRecord
100
AcDbLayerTableRecord
2
0
70
0
6
CONTINUOUS
0
ENDTAB
0
TABLE
2
STYLE
5
3
100
AcDbSymbolTable
70
1
0
STYLE
5
11
100
AcDbSymbolTableRecord
100
AcDbTextStyleTableRecord
2
STANDARD
70
0
0
ENDTAB
0
TABLE
2
VIEW
5
6
100
AcDbSymbolTable
70
0
0
ENDTAB
0
TABLE
2
UCS
5
7
100
AcDbSymbolTable
70
0
0
ENDTAB
0
TABLE
2
APPID
5
9
100
AcDbSymbolTable
70
2
0
APPID
5
12
100
AcDbSymbolTableRecord
100
AcDbRegAppTableRecord
2
ACAD
70
0
0
ENDTAB
0
TABLE
2
DIMSTYLE
5
A
100
AcDbSymbolTable
70
1
0
ENDTAB
0
TABLE
2
BLOCK_RECORD
5
1
100
AcDbSymbolTable
70
1
0
BLOCK_RECORD
5
1F
100
AcDbSymbolTableRecord
100
AcDbBlockTableRecord
2
*MODEL_SPACE
0
BLOCK_RECORD
5
1B
100
AcDbSymbolTableRecord
100
AcDbBlockTableRecord
2
*PAPER_SPACE
0
ENDTAB
0
ENDSEC
0
SECTION
2
BLOCKS
0
BLOCK
5
20
100
AcDbEntity
100
AcDbBlockBegin
2
*MODEL_SPACE
0
ENDBLK
5
21
100
AcDbEntity
100
AcDbBlockEnd
0
BLOCK
5
1C
100
AcDbEntity
100
AcDbBlockBegin
2
*PAPER_SPACE
0
ENDBLK
5
1D
100
AcDbEntity
100
AcDbBlockEnd
0
ENDSEC
0
SECTION
2
ENTITIES
0
LWPOLYLINE
5
100
100
AcDbEntity
8
0
100
AcDbPolyline
90
32
70
1
43
0.0
10
-24.945956550245107
20
27.949283712992674
10
-27.94928371299266
20
24.945956550245132
42
-0.13891583518232958
10
-33.660662399348752
20
21.756244824778751
42
0.51100709532565702
10
-39.242919527482499
20
8.2794839573843468
42
-0.13891583518232925
10
-37.459831719543317
20
1.9854625672301029
10
-37.459831719543295
20
-1.8336919772966331
42
-0.14047823424743988
10
-39.281693387793929
20
-8.1902240585319603
42
0.51487850837122029
10
-33.624963379141192
20
-21.846778364104281
42
-0.1404782342474416
10
-27.841965699666016
20
-25.053274563571787
10
-24.945956550245121
20
-27.949283712992653
42
-0.13891583518232956
10
-21.756244824778719
20
-33.660662399348759
42
0.5110070953256578
10
-8.2794839573843166
20
-39.242919527482542
42
-0.13891583518232964
10
-1.9854625672300708
20
-37.459831719543338
10
1.9854625672300568
20
-37.459831719543317
42
-0.13891583518233033
10
8.2794839573843166
20
-39.242919527482542
42
0.51100709532565713
10
21.756244824778719
20
-33.66066239934878
42
-0.13891583518232992
10
24.945956550245111
20
-27.949283712992678
10
27.94928371299266
20
-24.945956550245132
42
-0.13891583518233033
10
33.660662399348759
20
-21.756244824778751
42
0.51100709532565669
10
39.242919527482499
20
-8.2794839573843468
42
-0.13891583518233072
10
37.459831719543317
20
-1.9854625672301063
10
37.459831719543317
20
1.9854625672300952
42
-0.13891583518233022
10
39.242919527482492
20
8.2794839573843433
42
0.51100709532565736
10
33.660662399348737
20
21.756244824778751
42
-0.13891583518232964
10
27.949283712992639
20
24.945956550245146
10
24.945956550245111
20
27.949283712992674
42
-0.13891583518233072
10
21.756244824778733
20
33.660662399348766
42
0.5110070953256578
10
8.2794839573843113
20
39.242919527482506
42
-0.1389158351823308
10
1.9854625672300663
20
37.459831719543331
10
-1.9854625672300643
20
37.459831719543317
42
-0.13891583518233044
10
-8.279483957384322
20
39.242919527482542
42
0.51100709532565736
10
-21.756244824778712
20
33.660662399348794
42
-0.13891583518232997
0
LWPOLYLINE
5
101
100
AcDbEntity
8
0
100
AcDbPolyline
90
8
70
1
43
0.0
10
-19.70886074068957
20
-9.9999999999999982
10
-20.70886074068957
20
-9.9999999999999911
42
-0.41421356237309825
10
-21.70886074068957
20
-8.9999999999999876
10
-21.708860740689513
20
9
42
-0.41421356237309209
10
-20.708860740689502
20
9.9999999999999964
10
-19.708860740689499
20
9.9999999999999982
42
-0.41421356237309731
10
-18.708860740689502
20
8.9999999999999947
10
-18.70886074068957
20
-9
42
-0.4142135623730947
0
LWPOLYLINE
5
102
100
AcDbEntity
8
0
100
AcDbPolyline
90
8
70
1
43
0.0
10
19.708860740689499
20
9.9999999999999982
10
20.708860740689502
20
9.9999999999999982
42
-0.41421356237309209
10
21.708860740689509
20
9.0000000000000018
10
21.708860740689559
20
-8.9999999999999876
42
-0.41421356237309437
10
20.70886074068957
20
-9.9999999999999911
10
19.70886074068957
20
-9.9999999999999982
42
-0.4142135623730957
10
18.708860740689573
20
-9
10
18.708860740689499
20
8.9999999999999964
42
-0.4142135623730937
0
CIRCLE
5
103
100
AcDbEntity
8
0
100
AcDbCircle
10
-22.269393746926042
20
22.269393807329514
30
0
40
3.0000000000000004
210
0
220
0
230
1
0
CIRCLE
5
104
100
AcDbEntity
8
0
100
AcDbCircle
10
-15
20
15
30
0
40
3.0000000000000004
210
0
220
0
230
1
0
CIRCLE
5
105
100
AcDbEntity
8
0
100
AcDbCircle
10
-10
20
10
30
0
40
3.0000000000000004
210
0
220
0
230
1
0
CIRCLE
5
106
100
AcDbEntity
8
0
100
AcDbCircle
10
-31.493678705441113
20
4.2711714828804177e-08
30
0
40
2.9999999999999982
210
0
220
0
230
1
0
CIRCLE
5
107
100
AcDbEntity
8
0
100
AcDbCircle
10
-10
20
-10
30
0
40
3.0000000000000004
210
0
220
0
230
1
0
CIRCLE
5
108
100
AcDbEntity
8
0
100
AcDbCircle
10
-15
20
-15
30
0
40
3.0000000000000004
210
0
220
0
230
1
0
CIRCLE
5
109
100
AcDbEntity
8
0
100
AcDbCircle
10
-22.269393718580748
20
-22.269393718580655
30
0
40
3.0000000000000004
210
0
220
0
230
1
0
CIRCLE
5
110
100
AcDbEntity
8
0
100
AcDbCircle
10
-4.271169384979985e-08
20
-31.493678705441113
30
0
40
3.0000000000000004
210
0
220
0
230
1
0
CIRCLE
5
111
100
AcDbEntity
8
0
100
AcDbCircle
10
22.269393746926053
20
-22.269393807329507
30
0
40
2.9999999999999978
210
0
220
0
230
1
0
CIRCLE
5
112
100
AcDbEntity
8
0
100
AcDbCircle
10
31.493678622643042
20
-5.2959041902357768e-14
30
0
40
3.0000000000000004
210
0
220
0
230
1
0
CIRCLE
5
113
100
AcDbEntity
8
0
100
AcDbCircle
10
22.269393718580734
20
22.269393718580666
30
0
40
3.0000000000000004
210
0
220
0
230
1
0
CIRCLE
5
114
100
AcDbEntity
8
0
100
AcDbCircle
10
4.2711707835802734e-08
20
31.493678705441113
30
0
40
3.0000000000000004
210
0
220
0
230
1
0
CIRCLE
5
115
100
AcDbEntity
8
0
100
AcDbCircle
10
10
20
-10
30
0
40
3.0000000000000009
210
0
220
0
230
1
0
CIRCLE
5
116
100
AcDbEntity
8
0
100
AcDbCircle
10
15
20
-15
30
0
40
2.9999999999999991
210
0
220
0
230
1
0
CIRCLE
5
117
100
AcDbEntity
8
0
100
AcDbCircle
10
10
20
10
30
0
40
3.0000000000000004
210
0
220
0
230
1
0
CIRCLE
5
118
100
AcDbEntity
8
0
100
AcDbCircle
10
15
20
15
30
0
40
3.0000000000000022
210
0
220
0
230
1
0
CIRCLE
5
119
100
AcDbEntity
8
0
100
AcDbCircle
10
-31.580235383436893
20
13.000000000000028
30
0
40
2.5
210
0
220
0
230
1
0
CIRCLE
5
120
100
AcDbEntity
8
0
100
AcDbCircle
10
-13
20
31.580235383436936
30
0
40
2.5000000000000004
210
0
220
0
230
1
0
CIRCLE
5
121
100
AcDbEntity
8
0
100
AcDbCircle
10
13.000000000000069
20
31.580235383436879
30
0
40
2.4999999999999982
210
0
220
0
230
1
0
CIRCLE
5
122
100
AcDbEntity
8
0
100
AcDbCircle
10
31.580235449688079
20
12.999999957398494
30
0
40
2.5000000000000018
210
0
220
0
230
1
0
CIRCLE
5
123
100
AcDbEntity
8
0
100
AcDbCircle
10
31.580235383436886
20
-13.000000000000027
30
0
40
2.5
210
0
220
0
230
1
0
CIRCLE
5
124
100
AcDbEntity
8
0
100
AcDbCircle
10
12.999999999999998
20
-31.580235383436921
30
0
40
2.5
210
0
220
0
230
1
0
CIRCLE
5
125
100
AcDbEntity
8
0
100
AcDbCircle
10
-13.000000000000082
20
-31.580235383436872
30
0
40
2.5
210
0
220
0
230
1
0
CIRCLE
5
126
100
AcDbEntity
8
0
100
AcDbCircle
10
-31.580235449688089
20
-12.999999957398479
30
0
40
2.5000000000000004
210
0
220
0
230
1
0
CIRCLE
5
127
100
AcDbEntity
8
0
100
AcDbCircle
10
-31.580235383436893
20
13.000000000000028
30
0
40
4.9999999999999973
210
0
220
0
230
1
0
CIRCLE
5
128
100
AcDbEntity
8
0
100
AcDbCircle
10
-13
20
31.580235383436936
30
0
40
5.0000000000000009
210
0
220
0
230
1
0
CIRCLE
5
129
100
AcDbEntity
8
0
100
AcDbCircle
10
13.000000000000069
20
31.580235383436879
30
0
40
5.0000000000000018
210
0
220
0
230
1
0
CIRCLE
5
130
100
AcDbEntity
8
0
100
AcDbCircle
10
31.580235449688079
20
12.999999957398494
30
0
40
4.9999999999999991
210
0
220
0
230
1
0
CIRCLE
5
131
100
AcDbEntity
8
0
100
AcDbCircle
10
31.580235383436886
20
-13.000000000000027
30
0
40
5.0000000000000009
210
0
220
0
230
1
0
CIRCLE
5
132
100
AcDbEntity
8
0
100
AcDbCircle
10
12.999999999999998
20
-31.580235383436921
30
0
40
4.9999999999999982
210
0
220
0
230
1
0
CIRCLE
5
133
100
AcDbEntity
8
0
100
AcDbCircle
10
-13.000000000000082
20
-31.580235383436872
30
0
40
4.9999999999999973
210
0
220
0
230
1
0
CIRCLE
5
134
100
AcDbEntity
8
0
100
AcDbCircle
10
-31.580235449688089
20
-12.999999957398479
30
0
40
5
210
0
220
0
230
1
0
ENDSEC
0
SECTION
2
OBJECTS
0
DICTIONARY
5
C
100
AcDbDictionary
3
ACAD_GROUP
350
D
3
ACAD_MLINESTYLE
350
17
0
DICTIONARY
5
D
100
AcDbDictionary
0
DICTIONARY
5
1A
330
C
100
AcDbDictionary
0
DICTIONARY
5
17
100
AcDbDictionary
0
ENDSEC
0
EOF
