0
SECTION
2
HEADER
9
$INSUNITS
70
4
9
$ACADVER
1
AC1014
9
$HANDSEED
5
FFFF
0
ENDSEC
0
SECTION
2
TABLES
0
TABLE
2
VPORT
5
8
100
AcDbSymbolTable
0
ENDTAB
0
TABLE
2
LTYPE
5
5
100
AcDbSymbolTable
0
LTYPE
5
14
100
AcDbSymbolTableRecord
100
AcDbLinetypeTableRecord
2
BYBLOCK
70
0
0
LTYPE
5
15
100
AcDbSymbolTableRecord
100
AcDbLinetypeTableRecord
2
BYLAYER
70
0
0
ENDTAB
0
TABLE
2
LAYER
5
2
100
AcDbSymbolTable
70
2
0
LAYER
5
50
100
AcDbSymbolTableRecord
100
AcDbLayerTableRecord
2
0
70
0
6
CONTINUOUS
0
ENDTAB
0
TABLE
2
STYLE
5
3
100
AcDbSymbolTable
70
1
0
STYLE
5
11
100
AcDbSymbolTableRecord
100
AcDbTextStyleTableRecord
2
STANDARD
70
0
0
ENDTAB
0
TABLE
2
VIEW
5
6
100
AcDbSymbolTable
70
0
0
ENDTAB
0
TABLE
2
UCS
5
7
100
AcDbSymbolTable
70
0
0
ENDTAB
0
TABLE
2
APPID
5
9
100
AcDbSymbolTable
70
2
0
APPID
5
12
100
AcDbSymbolTableRecord
100
AcDbRegAppTableRecord
2
ACAD
70
0
0
ENDTAB
0
TABLE
2
DIMSTYLE
5
A
100
AcDbSymbolTable
70
1
0
ENDTAB
0
TABLE
2
BLOCK_RECORD
5
1
100
AcDbSymbolTable
70
1
0
BLOCK_RECORD
5
1F
100
AcDbSymbolTableRecord
100
AcDbBlockTableRecord
2
*MODEL_SPACE
0
BLOCK_RECORD
5
1B
100
AcDbSymbolTableRecord
100
AcDbBlockTableRecord
2
*PAPER_SPACE
0
ENDTAB
0
ENDSEC
0
SECTION
2
BLOCKS
0
BLOCK
5
20
100
AcDbEntity
100
AcDbBlockBegin
2
*MODEL_SPACE
0
ENDBLK
5
21
100
AcDbEntity
100
AcDbBlockEnd
0
BLOCK
5
1C
100
AcDbEntity
100
AcDbBlockBegin
2
*PAPER_SPACE
0
ENDBLK
5
1D
100
AcDbEntity
100
AcDbBlockEnd
0
ENDSEC
0
SECTION
2
ENTITIES
0
CIRCLE
5
100
100
AcDbEntity
8
0
100
AcDbCircle
10
-31.580235383436875
20
13.000000000000076
30
0
40
3.645
210
0
220
0
230
1
0
CIRCLE
5
101
100
AcDbEntity
8
0
100
AcDbCircle
10
-12.999999957398487
20
31.580235449688082
30
0
40
3.6450000000000014
210
0
220
0
230
1
0
CIRCLE
5
102
100
AcDbEntity
8
0
100
AcDbCircle
10
13.000000000000069
20
31.580235383436879
30
0
40
3.6450000000000005
210
0
220
0
230
1
0
CIRCLE
5
103
100
AcDbEntity
8
0
100
AcDbCircle
10
31.580235449688079
20
12.999999957398494
30
0
40
3.6450000000000005
210
0
220
0
230
1
0
CIRCLE
5
104
100
AcDbEntity
8
0
100
AcDbCircle
10
31.580235383436882
20
-13.000000000000062
30
0
40
3.6450000000000009
210
0
220
0
230
1
0
CIRCLE
5
105
100
AcDbEntity
8
0
100
AcDbCircle
10
12.999999957398501
20
-31.580235449688075
30
0
40
3.6450000000000009
210
0
220
0
230
1
0
CIRCLE
5
106
100
AcDbEntity
8
0
100
AcDbCircle
10
-13.000000000000082
20
-31.580235383436872
30
0
40
3.6449999999999996
210
0
220
0
230
1
0
CIRCLE
5
107
100
AcDbEntity
8
0
100
AcDbCircle
10
-31.580235449688089
20
-12.999999957398479
30
0
40
3.6450000000000009
210
0
220
0
230
1
0
LWPOLYLINE
5
108
100
AcDbEntity
8
0
100
AcDbPolyline
90
8
70
1
43
0.0
10
-2.9728031430041191
20
-42.511077151249168
10
-3.0728031430041201
20
-42.511077151249168
42
-0.41421356237309553
10
-4.0728031430041192
20
-41.511077151249168
10
-4.0728031430041165
20
-38.511077151249168
42
-0.41421356237309948
10
-3.0728031430041169
20
-37.511077151249168
10
-2.9728031430041169
20
-37.511077151249168
42
-0.41421356237309925
10
-1.9728031430041193
20
-38.511077151249168
10
-1.9728031430041215
20
-41.511077151249168
42
-0.41421356237309553
0
LWPOLYLINE
5
109
100
AcDbEntity
8
0
100
AcDbPolyline
90
8
70
1
43
0.0
10
3.0728031430041365
20
-42.511077151249168
10
2.9728031430041346
20
-42.511077151249197
42
-0.41421356237310303
10
1.9728031430041348
20
-41.511077151249168
10
1.9728031430041304
20
-38.511077151249168
42
-0.41421356237309959
10
2.9728031430041297
20
-37.511077151249168
10
3.0728031430041289
20
-37.511077151249168
42
-0.41421356237309082
10
4.0728031430041334
20
-38.511077151249168
10
4.0728031430041343
20
-41.511077151249168
42
-0.41421356237309553
0
LWPOLYLINE
5
110
100
AcDbEntity
8
0
100
AcDbPolyline
90
34
70
1
43
0.0
10
24.945956550245111
20
-27.949283712992681
10
27.94928371299266
20
-24.945956550245132
42
-0.13891583518233072
10
33.660662399348752
20
-21.756244824778751
42
0.51100709532565736
10
39.242919527482492
20
-8.2794839573843486
42
-0.13891583518232906
10
37.459831719543324
20
-1.9854625672301063
10
37.459831719543295
20
1.9854625672300941
42
-0.13891583518233117
10
39.242919527482492
20
8.2794839573843468
42
0.51100709532565736
10
33.660662399348745
20
21.756244824778751
42
-0.13891583518232969
10
27.949283712992635
20
24.945956550245132
10
24.945956550245114
20
27.949283712992674
42
-0.13891583518232944
10
21.756244824778733
20
33.660662399348766
42
0.51100709532565758
10
8.2794839573843131
20
39.24291952748252
42
-0.13891583518232964
10
1.9854625672300696
20
37.459831719543331
10
-1.9854625672300574
20
37.459831719543331
42
-0.13891583518233003
10
-8.2794839573843184
20
39.242919527482528
42
0.51100709532565702
10
-21.756244824778712
20
33.660662399348794
42
-0.13891583518232981
10
-24.945956550245111
20
27.949283712992678
10
-27.94928371299266
20
24.945956550245132
42
-0.13891583518232958
10
-33.660662399348752
20
21.756244824778751
42
0.51100709532565758
10
-39.242919527482492
20
8.2794839573843504
42
-0.13891583518232919
10
-37.459831719543317
20
1.9854625672301049
10
-37.459831719543295
20
-1.8336919772966256
42
-0.1404782342474418
10
-39.281693387793922
20
-8.1902240585319674
42
0.51487850837122029
10
-33.624963379141192
20
-21.846778364104278
42
-0.14047823424744052
10
-27.841965699665998
20
-25.053274563571772
10
-24.945956550245121
20
-27.94928371299266
42
-0.13891583518233153
10
-21.756244824778733
20
-33.660662399348766
42
0.24070050661525505
10
-16.444150891285815
20
-39.895151176038496
10
-8.9613129617230278
20
-43.898867098484573
42
0.12344520711703998
10
-4.7153974018484233
20
-44.963364527228322
10
4.7153974018484002
20
-44.963364527228322
42
0.12344520711704265
10
8.9613129617229994
20
-43.898867098484573
10
16.444150891285801
20
-39.895151176038496
42
0.24070050661525424
10
21.756244824778719
20
-33.66066239934878
42
-0.13891583518233039
0
CIRCLE
5
111
100
AcDbEntity
8
0
100
AcDbCircle
10
-15
20
15
30
0
40
2.1100000000000003
210
0
220
0
230
1
0
CIRCLE
5
112
100
AcDbEntity
8
0
100
AcDbCircle
10
15
20
15
30
0
40
2.1099999999999999
210
0
220
0
230
1
0
CIRCLE
5
113
100
AcDbEntity
8
0
100
AcDbCircle
10
-15
20
-15
30
0
40
2.1099999999999999
210
0
220
0
230
1
0
CIRCLE
5
114
100
AcDbEntity
8
0
100
AcDbCircle
10
15
20
-15
30
0
40
2.1099999999999999
210
0
220
0
230
1
0
CIRCLE
5
115
100
AcDbEntity
8
0
100
AcDbCircle
10
10
20
-10
30
0
40
2.1099999999999994
210
0
220
0
230
1
0
CIRCLE
5
116
100
AcDbEntity
8
0
100
AcDbCircle
10
-10
20
-10
30
0
40
2.1099999999999999
210
0
220
0
230
1
0
CIRCLE
5
117
100
AcDbEntity
8
0
100
AcDbCircle
10
-10
20
10
30
0
40
2.1099999999999994
210
0
220
0
230
1
0
CIRCLE
5
118
100
AcDbEntity
8
0
100
AcDbCircle
10
10
20
10
30
0
40
2.1100000000000003
210
0
220
0
230
1
0
CIRCLE
5
119
100
AcDbEntity
8
0
100
AcDbCircle
10
-22.269393746926042
20
22.269393807329514
30
0
40
2.1100000000000003
210
0
220
0
230
1
0
CIRCLE
5
120
100
AcDbEntity
8
0
100
AcDbCircle
10
4.2711707835802734e-08
20
31.493678705441113
30
0
40
2.1099999999999999
210
0
220
0
230
1
0
CIRCLE
5
121
100
AcDbEntity
8
0
100
AcDbCircle
10
22.269393718580734
20
22.269393718580666
30
0
40
2.1099999999999985
210
0
220
0
230
1
0
CIRCLE
5
122
100
AcDbEntity
8
0
100
AcDbCircle
10
31.493678622643042
20
-5.2959041902357768e-14
30
0
40
2.1099999999999999
210
0
220
0
230
1
0
CIRCLE
5
123
100
AcDbEntity
8
0
100
AcDbCircle
10
22.269393746926053
20
-22.269393807329507
30
0
40
2.1099999999999985
210
0
220
0
230
1
0
CIRCLE
5
124
100
AcDbEntity
8
0
100
AcDbCircle
10
-4.271169384979985e-08
20
-31.493678705441113
30
0
40
2.1099999999999999
210
0
220
0
230
1
0
CIRCLE
5
125
100
AcDbEntity
8
0
100
AcDbCircle
10
-22.269393718580748
20
-22.269393718580655
30
0
40
2.109999999999999
210
0
220
0
230
1
0
CIRCLE
5
126
100
AcDbEntity
8
0
100
AcDbCircle
10
-31.493678705441113
20
4.2711714828804177e-08
30
0
40
2.1100000000000003
210
0
220
0
230
1
0
ENDSEC
0
SECTION
2
OBJECTS
0
DICTIONARY
5
C
100
AcDbDictionary
3
ACAD_GROUP
350
D
3
ACAD_MLINESTYLE
350
17
0
DICTIONARY
5
D
100
AcDbDictionary
0
DICTIONARY
5
1A
330
C
100
AcDbDictionary
0
DICTIONARY
5
17
100
AcDbDictionary
0
ENDSEC
0
EOF
