0
SECTION
2
HEADER
9
$INSUNITS
70
4
9
$ACADVER
1
AC1014
9
$HANDSEED
5
FFFF
0
ENDSEC
0
SECTION
2
TABLES
0
TABLE
2
VPORT
5
8
100
AcDbSymbolTable
0
ENDTAB
0
TABLE
2
LTYPE
5
5
100
AcDbSymbolTable
0
LTYPE
5
14
100
AcDbSymbolTableRecord
100
AcDbLinetypeTableRecord
2
BYBLOCK
70
0
0
LTYPE
5
15
100
AcDbSymbolTableRecord
100
AcDbLinetypeTableRecord
2
BYLAYER
70
0
0
ENDTAB
0
TABLE
2
LAYER
5
2
100
AcDbSymbolTable
70
2
0
LAYER
5
50
100
AcDbSymbolTableRecord
100
AcDbLayerTableRecord
2
0
70
0
6
CONTINUOUS
0
ENDTAB
0
TABLE
2
STYLE
5
3
100
AcDbSymbolTable
70
1
0
STYLE
5
11
100
AcDbSymbolTableRecord
100
AcDbTextStyleTableRecord
2
STANDARD
70
0
0
ENDTAB
0
TABLE
2
VIEW
5
6
100
AcDbSymbolTable
70
0
0
ENDTAB
0
TABLE
2
UCS
5
7
100
AcDbSymbolTable
70
0
0
ENDTAB
0
TABLE
2
APPID
5
9
100
AcDbSymbolTable
70
2
0
APPID
5
12
100
AcDbSymbolTableRecord
100
AcDbRegAppTableRecord
2
ACAD
70
0
0
ENDTAB
0
TABLE
2
DIMSTYLE
5
A
100
AcDbSymbolTable
70
1
0
ENDTAB
0
TABLE
2
BLOCK_RECORD
5
1
100
AcDbSymbolTable
70
1
0
BLOCK_RECORD
5
1F
100
AcDbSymbolTableRecord
100
AcDbBlockTableRecord
2
*MODEL_SPACE
0
BLOCK_RECORD
5
1B
100
AcDbSymbolTableRecord
100
AcDbBlockTableRecord
2
*PAPER_SPACE
0
ENDTAB
0
ENDSEC
0
SECTION
2
BLOCKS
0
BLOCK
5
20
100
AcDbEntity
100
AcDbBlockBegin
2
*MODEL_SPACE
0
ENDBLK
5
21
100
AcDbEntity
100
AcDbBlockEnd
0
BLOCK
5
1C
100
AcDbEntity
100
AcDbBlockBegin
2
*PAPER_SPACE
0
ENDBLK
5
1D
100
AcDbEntity
100
AcDbBlockEnd
0
ENDSEC
0
SECTION
2
ENTITIES
0
LINE
5
100
100
AcDbEntity
8
0
100
AcDbLine
10
30.228815396393031
20
25.632621272688866
30
0
11
25.63262131283026
21
30.228815344551219
31
0
0
LINE
5
101
100
AcDbEntity
8
0
100
AcDbLine
10
14.905798994727459
20
19.501992951633195
30
0
11
25.632621234212518
21
30.228815311924993
31
0
0
CIRCLE
5
102
100
AcDbEntity
8
0
100
AcDbCircle
10
22.269393807329521
20
22.269393746926038
30
0
40
1.5000000000000002
210
0
220
-0
230
1
0
LINE
5
103
100
AcDbEntity
8
0
100
AcDbLine
10
30.228815311925082
20
25.632621234212429
30
0
11
19.501993012036657
21
14.905798934323993
31
0
0
LINE
5
104
100
AcDbEntity
8
0
100
AcDbLine
10
14.905798994727459
20
19.501992951633195
30
0
11
17.203896003382056
21
17.203895942978594
31
0
0
LINE
5
105
100
AcDbEntity
8
0
100
AcDbLine
10
19.501993012036657
20
14.905798934323993
30
0
11
17.203896003382056
21
17.203895942978594
31
0
0
SPLINE
5
106
100
AcDbEntity
8
0
100
AcDbSpline
70
4
71
5
72
21
73
15
74
0
42
0.000000001
43
0.0000000001
44
0.0000000001
40
0
40
0
40
0
40
0
40
0
40
0
40
0.10000000000000001
40
0.20000000000000001
40
0.30000000000000004
40
0.40000000000000002
40
0.5
40
0.59999999999999998
40
0.69999999999999996
40
0.79999999999999993
40
0.89999999999999991
40
1
40
1
40
1
40
1
40
1
40
1
41
1
41
1
41
1
41
1
41
1
41
1
41
1
41
1
41
1
41
1
41
1
41
1
41
1
41
1
41
1
10
6.8652013277408237
20
25.249977517784238
30
0
10
7.0307279968976042
20
25.084450848627458
30
0
10
7.3560200145657895
20
24.792817922932482
30
0
10
7.8266743558914769
20
24.473604149976708
30
0
10
8.4212096824251876
20
24.255486796151985
30
0
10
9.1196210855099995
20
24.172781984420194
30
0
10
9.789540175527117
20
24.097498509997234
30
0
10
10.453423298023871
20
23.866913258546028
30
0
10
11.141591484532327
20
23.401326192592542
30
0
10
11.8901794314152
20
22.695517904746932
30
0
10
12.737195095203786
20
21.782072782108379
30
0
10
13.522237846397028
20
20.92486074019622
30
0
10
14.184102421968859
20
20.230836069705287
30
0
10
14.659534903399221
20
19.748257042961427
30
0
10
14.905798994727457
20
19.501992951633191
30
0
0
ARC
5
107
100
AcDbEntity
8
0
100
AcDbCircle
10
13.138210512640974
20
31.522986763243516
30
0
40
8.8713746427473446
210
0
220
0
230
1
100
AcDbArc
50
151.56197969877408
51
228.5287856955205
0
CIRCLE
5
108
100
AcDbEntity
8
0
100
AcDbCircle
10
13.138210512640946
20
31.522986763243537
30
0
40
2.5
210
0
220
-0
230
1
0
SPLINE
5
109
100
AcDbEntity
8
0
100
AcDbSpline
70
4
71
5
72
26
73
20
74
0
42
0.000000001
43
0.0000000001
44
0.0000000001
40
0
40
0
40
0
40
0
40
0
40
0
40
0.066666666666666666
40
0.13333333333333333
40
0.20000000000000001
40
0.26666666666666666
40
0.33333333333333331
40
0.39999999999999997
40
0.46666666666666662
40
0.53333333333333333
40
0.59999999999999998
40
0.66666666666666663
40
0.73333333333333328
40
0.79999999999999993
40
0.86666666666666659
40
0.93333333333333324
40
1
40
1
40
1
40
1
40
1
40
1
41
1
41
1
41
1
41
1
41
1
41
1
41
1
41
1
41
1
41
1
41
1
41
1
41
1
41
1
41
1
41
1
41
1
41
1
41
1
41
1
10
25.632621312830267
20
30.228815344551229
30
0
10
25.596719024939066
20
30.265619455637971
30
0
10
25.520426472062205
20
30.344929201474926
30
0
10
25.392524158009103
20
30.480998733200828
30
0
10
25.194861130929702
20
30.696880207351537
30
0
10
24.901835747037495
20
31.026929867321268
30
0
10
24.562665990479374
20
31.422830826950509
30
0
10
24.178784500433053
20
31.893991385004441
30
0
10
23.752814600141935
20
32.452107715391577
30
0
10
23.288014450800986
20
33.109080345544378
30
0
10
22.787924105977545
20
33.87514349235034
30
0
10
22.256086474701526
20
34.755935606349702
30
0
10
21.695840617674715
20
35.751640278502009
30
0
10
21.110133440768898
20
36.859504233755786
30
0
10
20.501407776125404
20
38.075122680983426
30
0
10
19.871536743012101
20
39.393769470506577
30
0
10
19.351751754212138
20
40.527794159841797
30
0
10
18.953298782901477
20
41.421535129500413
30
0
10
18.683862648806389
20
42.036433115031414
30
0
10
18.54819437079205
20
42.34864981574178
30
0
0
SPLINE
5
110
100
AcDbEntity
8
0
100
AcDbSpline
70
4
71
5
72
21
73
15
74
0
42
0.000000001
43
0.0000000001
44
0.0000000001
40
0
40
0
40
0
40
0
40
0
40
0
40
0.10000000000000001
40
0.20000000000000001
40
0.30000000000000004
40
0.40000000000000002
40
0.5
40
0.59999999999999998
40
0.69999999999999996
40
0.79999999999999993
40
0.89999999999999991
40
1
40
1
40
1
40
1
40
1
40
1
41
1
41
1
41
1
41
1
41
1
41
1
41
1
41
1
41
1
41
1
41
1
41
1
41
1
41
1
41
1
10
18.54819437079205
20
42.34864981574178
30
0
10
18.446783594033619
20
42.569272919145995
30
0
10
18.246640200712186
20
43.013728303230081
30
0
10
17.954459605331238
20
43.690038927977007
30
0
10
17.581218707267666
20
44.61135815743711
30
0
10
17.143694285139922
20
45.797789216496625
30
0
10
16.737621332157676
20
47.02190784189942
30
0
10
16.365304533480753
20
48.286475684439516
30
0
10
16.027512806551037
20
49.59241412005801
30
0
10
15.722364579440386
20
50.937468504729999
30
0
10
15.44717260604703
20
52.318418773746259
30
0
10
15.248908778500297
20
53.449408970303395
30
0
10
15.111724497824614
20
54.311448085672936
30
0
10
15.025301453495048
20
54.892171927568342
30
0
10
14.983348286613811
20
55.184041706479107
30
0
0
ARC
5
111
100
AcDbEntity
8
0
100
AcDbCircle
10
13.128667939528832
20
45.747968992627904
30
0
40
20.99999999999989
210
0
220
0
230
-1
100
AcDbArc
50
174.38834359397691
51
208.43802030122592
0
LINE
5
112
100
AcDbEntity
8
0
100
AcDbLine
10
8.7979836759206709
20
118.13539579395749
30
0
11
14.983348286613797
21
55.184041706479086
31
0
0
LINE
5
113
100
AcDbEntity
8
0
100
AcDbLine
10
7.770690124555899
20
47.801461751118168
30
0
11
-4.4412793442916154e-08
21
126.88741692426512
31
0
0
SPLINE
5
114
100
AcDbEntity
8
0
100
AcDbSpline
70
4
71
5
72
16
73
10
74
0
42
0.000000001
43
0.0000000001
44
0.0000000001
40
0.58668265975780243
40
0.58668265975780243
40
0.58668265975780243
40
0.58668265975780243
40
0.58668265975780243
40
0.58668265975780243
40
0.59999999999999998
40
0.69999999999999996
40
0.79999999999999993
40
0.89999999999999991
40
1
40
1
40
1
40
1
40
1
40
1
41
1
41
1
41
1
41
1
41
1
41
1
41
1
41
1
41
1
41
1
10
7.1855355785103914
20
134.35984999206227
30
0
10
7.193059419172247
20
134.27064133118625
30
0
10
7.2575383038671166
20
133.50911052497128
30
0
10
7.386222695772565
20
132.03645389888086
30
0
10
7.594499764609659
20
129.77032102766964
30
0
10
7.903246219518989
20
126.59898208014233
30
0
10
8.2395341864069493
20
123.32918591640936
30
0
10
8.5112852439170616
20
120.77228920017767
30
0
10
8.7009939583886986
20
119.02197907029922
30
0
10
8.7979836759206886
20
118.1353957939575
30
0
0
SPLINE
5
115
100
AcDbEntity
8
0
100
AcDbSpline
70
4
71
5
72
26
73
20
74
0
42
0.000000001
43
0.0000000001
44
0.0000000001
40
0
40
0
40
0
40
0
40
0
40
0
40
0.066666666666666666
40
0.13333333333333333
40
0.20000000000000001
40
0.26666666666666666
40
0.33333333333333331
40
0.39999999999999997
40
0.46666666666666662
40
0.53333333333333333
40
0.59999999999999998
40
0.66666666666666663
40
0.73333333333333328
40
0.79999999999999993
40
0.86666666666666659
40
0.93333333333333324
40
1
40
1
40
1
40
1
40
1
40
1
41
1
41
1
41
1
41
1
41
1
41
1
41
1
41
1
41
1
41
1
41
1
41
1
41
1
41
1
41
1
41
1
41
1
41
1
41
1
41
1
10
11.000000188971775
20
155.31259321932856
30
0
10
11.006573047459762
20
155.1754445313413
30
0
10
11.009616120736915
20
154.89456484768715
30
0
10
10.983876653290615
20
154.45349779401363
30
0
10
10.888474971529057
20
153.82563158557898
30
0
10
10.667965529633868
20
152.9715835625282
30
0
10
10.35194454732479
20
152.04267200821909
30
0
10
9.9570024295541675
20
151.02976537326776
30
0
10
9.5103238245477701
20
149.92084992967494
30
0
10
9.0437498905605711
20
148.70291409994215
30
0
10
8.5895645268848142
20
147.36385827048613
30
0
10
8.176084432041387
20
145.8945126910663
30
0
10
7.8223270794326814
20
144.29175931257566
30
0
10
7.539037055535049
20
142.55720981312433
30
0
10
7.3313970022458914
20
140.694886940874
30
0
10
7.2007651509848571
20
138.70976411460109
30
0
10
7.1572967505741119
20
137.02710479405596
30
0
10
7.1584053767257352
20
135.71339597362103
30
0
10
7.1740184729968712
20
134.81477216086554
30
0
10
7.1855435268250059
20
134.35975575065652
30
0
0
LINE
5
116
100
AcDbEntity
8
0
100
AcDbLine
10
11.000000163912816
20
175.00000260770324
30
0
11
11.000000188971775
21
155.31259321932856
31
0
0
ARC
5
117
100
AcDbEntity
8
0
100
AcDbCircle
10
-7.3491373927831525
20
168.88390890444987
30
0
40
19.341598984094514
210
0
220
-0
230
1
100
AcDbArc
50
18.434146534143821
51
43.341610375384199
0
LINE
5
118
100
AcDbEntity
8
0
100
AcDbLine
10
1.8181861267960997
20
187.35043349998833
30
0
11
6.7175143065076703
21
182.15895170032667
31
0
0
ARC
5
119
100
AcDbEntity
8
0
100
AcDbCircle
10
-1.1918828590751218e-07
20
185.63456672925332
30
0
40
2.4999999999998632
210
0
220
-0
230
1
100
AcDbArc
50
43.341610375383084
51
90.000000072928643
0
LINE
5
120
100
AcDbEntity
8
0
100
AcDbLine
10
1.0658141036401503e-13
20
188.13456672925321
30
0
11
8.8817841970012523e-14
21
168.23671262767235
31
0
0
ARC
5
121
100
AcDbEntity
8
0
100
AcDbCircle
10
9.3225249742090455e-08
20
165.23671262767232
30
0
40
3.0000000000000426
210
0
220
0
230
-1
100
AcDbArc
50
89.999999927072167
51
269.99999907329897
0
CIRCLE
5
122
100
AcDbEntity
8
0
100
AcDbCircle
10
6.7175143194967148
20
171.95422705749482
30
0
40
1.4999999999999971
210
0
220
0
230
1
0
CIRCLE
5
123
100
AcDbEntity
8
0
100
AcDbCircle
10
6.7175143365973264
20
158.51919821495042
30
0
40
1.5000000000000104
210
0
220
0
230
1
0
LINE
5
124
100
AcDbEntity
8
0
100
AcDbLine
10
-4.4703298840431671e-08
20
162.23671262767226
30
0
11
-4.4412793442916154e-08
21
126.88741692426512
31
0
0
ENDSEC
0
SECTION
2
OBJECTS
0
DICTIONARY
5
C
100
AcDbDictionary
3
ACAD_GROUP
350
D
3
ACAD_MLINESTYLE
350
17
0
DICTIONARY
5
D
100
AcDbDictionary
0
DICTIONARY
5
1A
330
C
100
AcDbDictionary
0
DICTIONARY
5
17
100
AcDbDictionary
0
ENDSEC
0
EOF
