0
SECTION
2
HEADER
9
$INSUNITS
70
4
9
$ACADVER
1
AC1014
9
$HANDSEED
5
FFFF
0
ENDSEC
0
SECTION
2
TABLES
0
TABLE
2
VPORT
5
8
100
AcDbSymbolTable
0
ENDTAB
0
TABLE
2
LTYPE
5
5
100
AcDbSymbolTable
0
LTYPE
5
14
100
AcDbSymbolTableRecord
100
AcDbLinetypeTableRecord
2
BYBLOCK
70
0
0
LTYPE
5
15
100
AcDbSymbolTableRecord
100
AcDbLinetypeTableRecord
2
BYLAYER
70
0
0
ENDTAB
0
TABLE
2
LAYER
5
2
100
AcDbSymbolTable
70
2
0
LAYER
5
50
100
AcDbSymbolTableRecord
100
AcDbLayerTableRecord
2
0
70
0
6
CONTINUOUS
0
ENDTAB
0
TABLE
2
STYLE
5
3
100
AcDbSymbolTable
70
1
0
STYLE
5
11
100
AcDbSymbolTableRecord
100
AcDbTextStyleTableRecord
2
STANDARD
70
0
0
ENDTAB
0
TABLE
2
VIEW
5
6
100
AcDbSymbolTable
70
0
0
ENDTAB
0
TABLE
2
UCS
5
7
100
AcDbSymbolTable
70
0
0
ENDTAB
0
TABLE
2
APPID
5
9
100
AcDbSymbolTable
70
2
0
APPID
5
12
100
AcDbSymbolTableRecord
100
AcDbRegAppTableRecord
2
ACAD
70
0
0
ENDTAB
0
TABLE
2
DIMSTYLE
5
A
100
AcDbSymbolTable
70
1
0
ENDTAB
0
TABLE
2
BLOCK_RECORD
5
1
100
AcDbSymbolTable
70
1
0
BLOCK_RECORD
5
1F
100
AcDbSymbolTableRecord
100
AcDbBlockTableRecord
2
*MODEL_SPACE
0
BLOCK_RECORD
5
1B
100
AcDbSymbolTableRecord
100
AcDbBlockTableRecord
2
*PAPER_SPACE
0
ENDTAB
0
ENDSEC
0
SECTION
2
BLOCKS
0
BLOCK
5
20
100
AcDbEntity
100
AcDbBlockBegin
2
*MODEL_SPACE
0
ENDBLK
5
21
100
AcDbEntity
100
AcDbBlockEnd
0
BLOCK
5
1C
100
AcDbEntity
100
AcDbBlockBegin
2
*PAPER_SPACE
0
ENDBLK
5
1D
100
AcDbEntity
100
AcDbBlockEnd
0
ENDSEC
0
SECTION
2
ENTITIES
0
LWPOLYLINE
5
100
100
AcDbEntity
8
0
100
AcDbPolyline
90
30
70
1
43
0.0
10
92.640681390513052
20
105.74075062270232
10
82.456597096301692
20
94.772958416116296
42
-0.019063793079805293
10
78.220768745955695
20
90.54634100933751
42
-0.014683670754394015
10
77.313225514606103
20
89.755453397685159
10
28.426182945233386
20
49.615837235660877
42
-0.01790861363215996
10
26.974277506917161
20
48.508323812354305
42
-0.073359325992959024
10
10.184811022212594
20
39.993082646481916
42
0.0094347968486907345
10
9.8694061801474717
20
39.88087815295065
10
3.742897102952484
20
37.570260531291353
42
-0.14665017375445544
10
3.170029958416448
20
37.530422058790585
42
-0.35064642447133743
10
2.0000000000000773
20
38.993678622643046
10
2.0000000000000773
20
39.493678622643039
10
7.1054273576010019e-14
20
39.493678622643046
10
4.8849813083506888e-14
20
23.493678622643039
10
2.0000000000000462
20
23.493678622643035
10
2.0000000000000528
20
24.079465060269939
42
-0.17834629944121785
10
2.358518996653427
20
25.052615161230104
42
-0.30332460568066755
10
3.4275944576799509
20
25.355206250028537
10
10.266834816043978
20
23.140383718319121
42
0.42129641522340361
10
21.503318525921145
20
29.051428926092242
42
-0.14967260542218719
10
28.306030106053619
20
39.295445389648727
10
89.722952954392596
20
89.722952954392539
10
114.71867962483019
20
114.71867968805026
42
-0.9999999925494194
10
118.96132034355963
20
118.96132034355955
10
133.03122790984798
20
133.03122790984793
42
0.20644573621070433
10
131.19111015890465
20
133.76241380998462
10
106.65338166753955
20
133.05198654654558
42
0.36580184445198732
10
101.84639326669178
20
128.74745388248425
10
101.59673453018065
20
126.96452810796602
42
-0.06230333819616244
10
98.233585608336142
20
114.5013369069307
42
-0.090331759609733511
0
LWPOLYLINE
5
101
100
AcDbEntity
8
0
100
AcDbPolyline
90
4
70
1
43
0.0
10
108.83999997764855
20
115.33999999999978
10
107.33999999999997
20
115.33999999999985
42
-0.99999999999999989
10
107.33999999999997
20
118.33999999999989
10
108.84000002235135
20
118.33999999999975
42
-0.99999999999999989
0
LWPOLYLINE
5
102
100
AcDbEntity
8
0
100
AcDbPolyline
90
4
70
1
43
0.0
10
118.34
20
126.33999999999986
10
118.3399999999999
20
124.83999997764849
42
-0.99999999999999989
10
115.3399999999999
20
124.84000002235129
10
115.33999999999999
20
126.33999999999983
42
-0.99999999999999989
0
CIRCLE
5
103
100
AcDbEntity
8
0
100
AcDbCircle
10
13.000000000000068
20
31.580235383436879
30
0
40
2.5
210
0
220
-0
230
1
0
ENDSEC
0
SECTION
2
OBJECTS
0
DICTIONARY
5
C
100
AcDbDictionary
3
ACAD_GROUP
350
D
3
ACAD_MLINESTYLE
350
17
0
DICTIONARY
5
D
100
AcDbDictionary
0
DICTIONARY
5
1A
330
C
100
AcDbDictionary
0
DICTIONARY
5
17
100
AcDbDictionary
0
ENDSEC
0
EOF
