0
SECTION
2
HEADER
9
$INSUNITS
70
4
9
$ACADVER
1
AC1014
9
$HANDSEED
5
FFFF
0
ENDSEC
0
SECTION
2
TABLES
0
TABLE
2
VPORT
5
8
100
AcDbSymbolTable
0
ENDTAB
0
TABLE
2
LTYPE
5
5
100
AcDbSymbolTable
0
LTYPE
5
14
100
AcDbSymbolTableRecord
100
AcDbLinetypeTableRecord
2
BYBLOCK
70
0
0
LTYPE
5
15
100
AcDbSymbolTableRecord
100
AcDbLinetypeTableRecord
2
BYLAYER
70
0
0
ENDTAB
0
TABLE
2
LAYER
5
2
100
AcDbSymbolTable
70
2
0
LAYER
5
50
100
AcDbSymbolTableRecord
100
AcDbLayerTableRecord
2
0
70
0
6
CONTINUOUS
0
ENDTAB
0
TABLE
2
STYLE
5
3
100
AcDbSymbolTable
70
1
0
STYLE
5
11
100
AcDbSymbolTableRecord
100
AcDbTextStyleTableRecord
2
STANDARD
70
0
0
ENDTAB
0
TABLE
2
VIEW
5
6
100
AcDbSymbolTable
70
0
0
ENDTAB
0
TABLE
2
UCS
5
7
100
AcDbSymbolTable
70
0
0
ENDTAB
0
TABLE
2
APPID
5
9
100
AcDbSymbolTable
70
2
0
APPID
5
12
100
AcDbSymbolTableRecord
100
AcDbRegAppTableRecord
2
ACAD
70
0
0
ENDTAB
0
TABLE
2
DIMSTYLE
5
A
100
AcDbSymbolTable
70
1
0
ENDTAB
0
TABLE
2
BLOCK_RECORD
5
1
100
AcDbSymbolTable
70
1
0
BLOCK_RECORD
5
1F
100
AcDbSymbolTableRecord
100
AcDbBlockTableRecord
2
*MODEL_SPACE
0
BLOCK_RECORD
5
1B
100
AcDbSymbolTableRecord
100
AcDbBlockTableRecord
2
*PAPER_SPACE
0
ENDTAB
0
ENDSEC
0
SECTION
2
BLOCKS
0
BLOCK
5
20
100
AcDbEntity
100
AcDbBlockBegin
2
*MODEL_SPACE
0
ENDBLK
5
21
100
AcDbEntity
100
AcDbBlockEnd
0
BLOCK
5
1C
100
AcDbEntity
100
AcDbBlockBegin
2
*PAPER_SPACE
0
ENDBLK
5
1D
100
AcDbEntity
100
AcDbBlockEnd
0
ENDSEC
0
SECTION
2
ENTITIES
0
CIRCLE
5
100
100
AcDbEntity
8
0
100
AcDbCircle
10
-15.250000000000002
20
15.250000000000002
30
0
40
2.1100000000000008
210
0
220
-0
230
1
0
CIRCLE
5
101
100
AcDbEntity
8
0
100
AcDbCircle
10
-10
20
-10
30
0
40
2.1100000000000008
210
0
220
-0
230
1
0
CIRCLE
5
102
100
AcDbEntity
8
0
100
AcDbCircle
10
10
20
-10
30
0
40
2.1100000000000008
210
0
220
-0
230
1
0
CIRCLE
5
103
100
AcDbEntity
8
0
100
AcDbCircle
10
10
20
10
30
0
40
2.1100000000000008
210
0
220
-0
230
1
0
CIRCLE
5
104
100
AcDbEntity
8
0
100
AcDbCircle
10
-10
20
10
30
0
40
2.1100000000000008
210
0
220
-0
230
1
0
CIRCLE
5
105
100
AcDbEntity
8
0
100
AcDbCircle
10
-15.250000000000002
20
-15.250000000000002
30
0
40
2.1100000000000008
210
0
220
-0
230
1
0
CIRCLE
5
106
100
AcDbEntity
8
0
100
AcDbCircle
10
15.250000000000002
20
-15.250000000000002
30
0
40
2.1100000000000008
210
0
220
-0
230
1
0
CIRCLE
5
107
100
AcDbEntity
8
0
100
AcDbCircle
10
15.250000000000002
20
15.250000000000002
30
0
40
2.1100000000000008
210
0
220
-0
230
1
0
LWPOLYLINE
5
108
100
AcDbEntity
8
0
100
AcDbPolyline
90
34
70
1
43
0.0
10
-8.9613129617230278
20
-43.898867098484573
42
0.12344520711704147
10
-4.7153974018484233
20
-44.963364527228308
10
4.7153974018484002
20
-44.963364527228308
42
0.12344520711704229
10
8.9613129617230012
20
-43.89886709848458
10
16.444150891285801
20
-39.895151176038496
42
0.24070050661525477
10
21.756244824778719
20
-33.66066239934878
42
-0.13891583518233014
10
24.945956550245111
20
-27.949283712992681
10
27.949283712992656
20
-24.945956550245132
42
-0.13891583518232992
10
33.660662399348752
20
-21.756244824778747
42
0.51100709532565725
10
39.242919527482499
20
-8.2794839573843486
42
-0.13891583518233014
10
37.459831719543317
20
-1.9854625672301052
10
37.459831719543303
20
1.9854625672300941
42
-0.13891583518233036
10
39.242919527482499
20
8.2794839573843468
42
0.51100709532565758
10
33.660662399348745
20
21.756244824778747
42
-0.13891583518233025
10
27.949283712992639
20
24.945956550245135
10
24.945956550245114
20
27.949283712992671
42
-0.13891583518233014
10
21.756244824778726
20
33.660662399348766
42
0.5110070953256578
10
8.2794839573843131
20
39.24291952748252
42
-0.13891583518233014
10
1.9854625672300696
20
37.459831719543331
10
-1.9854625672300574
20
37.459831719543324
42
-0.13891583518233058
10
-8.2794839573843184
20
39.24291952748252
42
0.51100709532565725
10
-21.756244824778712
20
33.660662399348787
42
-0.13891583518233014
10
-24.945956550245107
20
27.949283712992681
10
-27.94928371299266
20
24.945956550245135
42
-0.13891583518232992
10
-33.660662399348752
20
21.756244824778754
42
0.51100709532565725
10
-39.242919527482499
20
8.2794839573843486
42
-0.13891583518233014
10
-37.459831719543317
20
1.9854625672301052
10
-37.459831719543295
20
-1.8336919772966254
42
-0.14047823424744094
10
-39.281693387793922
20
-8.1902240585319657
42
0.51487850837122018
10
-33.624963379141192
20
-21.846778364104281
42
-0.14047823424744083
10
-27.841965699666002
20
-25.053274563571772
10
-24.945956550245121
20
-27.949283712992656
42
-0.13891583518233025
10
-21.756244824778726
20
-33.660662399348766
42
0.24070050661525483
10
-16.444150891285815
20
-39.895151176038496
0
LWPOLYLINE
5
109
100
AcDbEntity
8
0
100
AcDbPolyline
90
8
70
1
43
0.0
10
1.9728031430041348
20
-41.511077151249168
10
1.9728031430041304
20
-38.511077151249175
42
-0.4142135623730957
10
2.9728031430041293
20
-37.511077151249175
10
3.0728031430041289
20
-37.511077151249175
42
-0.41421356237309243
10
4.0728031430041316
20
-38.511077151249175
10
4.0728031430041343
20
-41.511077151249168
42
-0.41421356237309553
10
3.072803143004136
20
-42.511077151249168
10
2.9728031430041346
20
-42.511077151249182
42
-0.4142135623730972
0
LWPOLYLINE
5
110
100
AcDbEntity
8
0
100
AcDbPolyline
90
8
70
1
43
0.0
10
-4.0728031430041192
20
-41.511077151249168
10
-4.0728031430041165
20
-38.511077151249175
42
-0.41421356237309598
10
-3.0728031430041169
20
-37.511077151249175
10
-2.9728031430041169
20
-37.511077151249175
42
-0.41421356237309781
10
-1.9728031430041182
20
-38.511077151249175
10
-1.9728031430041215
20
-41.511077151249168
42
-0.41421356237309537
10
-2.9728031430041191
20
-42.511077151249168
10
-3.0728031430041201
20
-42.511077151249168
42
-0.41421356237309553
0
CIRCLE
5
111
100
AcDbEntity
8
0
100
AcDbCircle
10
13.000000000000005
20
31.580235383436914
30
0
40
3.6449999999999996
210
0
220
-0
230
1
0
CIRCLE
5
112
100
AcDbEntity
8
0
100
AcDbCircle
10
-13.000000000000005
20
-31.580235383436914
30
0
40
3.6449999999999982
210
0
220
-0
230
1
0
CIRCLE
5
113
100
AcDbEntity
8
0
100
AcDbCircle
10
13.000000000000005
20
-31.580235383436914
30
0
40
3.6450000000000005
210
0
220
-0
230
1
0
CIRCLE
5
114
100
AcDbEntity
8
0
100
AcDbCircle
10
-13.000000000000005
20
31.580235383436914
30
0
40
3.6449999999999982
210
0
220
-0
230
1
0
CIRCLE
5
115
100
AcDbEntity
8
0
100
AcDbCircle
10
31.580235383436893
20
13.000000000000028
30
0
40
3.6450000000000005
210
0
220
-0
230
1
0
CIRCLE
5
116
100
AcDbEntity
8
0
100
AcDbCircle
10
-31.580235383436893
20
-13.000000000000028
30
0
40
3.6450000000000005
210
0
220
-0
230
1
0
CIRCLE
5
117
100
AcDbEntity
8
0
100
AcDbCircle
10
31.580235383436893
20
-13.000000000000028
30
0
40
3.6450000000000005
210
0
220
-0
230
1
0
CIRCLE
5
118
100
AcDbEntity
8
0
100
AcDbCircle
10
-31.580235383436893
20
13.000000000000028
30
0
40
3.6450000000000005
210
0
220
-0
230
1
0
LWPOLYLINE
5
119
100
AcDbEntity
8
0
100
AcDbPolyline
90
10
70
1
43
0.0
10
6.1655155435518836
20
-25.724484175046229
42
0.059209996811981219
10
4.9834881145277921
20
-27.489326292527817
42
-0.28186105365722502
10
3.2020410288672938
20
-28.580235383436914
10
-3.2020410288672823
20
-28.580235383436925
42
-0.2818610536572243
10
-4.983488114527777
20
-27.489326292527831
42
0.059209996811982045
10
-6.1655155435518783
20
-25.724484175046225
42
-0.28186105365722419
10
-6.4961721768101466
20
-23.661888103461028
10
-1.849430956913404
20
-12.373797219595035
42
-0.66976383740820489
10
1.8494309569134018
20
-12.373797219595035
10
6.4961721768101475
20
-23.661888103461031
42
-0.28186105365722419
0
LWPOLYLINE
5
120
100
AcDbEntity
8
0
100
AcDbPolyline
90
10
70
1
43
0.0
10
4.9834881145277796
20
27.489326292527821
42
0.059209996811982045
10
6.1655155435518827
20
25.724484175046214
42
-0.28186105365722336
10
6.4961721768101475
20
23.661888103461028
10
1.8494309569134031
20
12.373797219595033
42
-0.66976383740820511
10
-1.8494309569134031
20
12.373797219595033
10
-6.496172176810151
20
23.661888103461031
42
-0.28186105365722397
10
-6.1655155435518871
20
25.724484175046225
42
0.059209996811981809
10
-4.9834881145277921
20
27.489326292527821
42
-0.28186105365722453
10
-3.2020410288672951
20
28.580235383436914
10
3.2020410288672845
20
28.580235383436914
42
-0.28186105365722441
0
LWPOLYLINE
5
121
100
AcDbEntity
8
0
100
AcDbPolyline
90
10
70
1
43
0.0
10
27.489326292527796
20
-4.9834881145278001
42
0.059209996811981691
10
25.7244841750462
20
-6.1655155435519013
42
-0.28186105365722491
10
23.661888103461003
20
-6.4961721768101635
10
12.373797219595
20
-1.8494309569133995
42
-0.66976383740820356
10
12.373797219595001
20
1.8494309569134015
10
23.661888103461017
20
6.4961721768101661
42
-0.28186105365722397
10
25.724484175046207
20
6.165515543551904
42
0.059209996811981337
10
27.489326292527796
20
4.9834881145278151
42
-0.28186105365722369
10
28.580235383436886
20
3.2020410288673213
10
28.580235383436886
20
-3.2020410288673129
42
-0.28186105365722397
0
LWPOLYLINE
5
122
100
AcDbEntity
8
0
100
AcDbPolyline
90
10
70
1
43
0.0
10
-25.647091071097989
20
-6.1265584625342075
42
0.061057203948218453
10
-27.482762459249162
20
-4.8970921493856325
42
-0.28285469911954675
10
-28.580235383436889
20
-3.1123106844925896
10
-28.580235383436889
20
3.20204102886732
42
-0.28186105365722441
10
-27.489326292527796
20
4.9834881145278151
42
0.059209996811981337
10
-25.724484175046207
20
6.1655155435519058
42
-0.28186105365722441
10
-23.66188810346101
20
6.4961721768101652
10
-12.373797219595
20
1.8494309569134024
42
-0.66976383740820455
10
-12.373797219595
20
-1.8494309569134015
10
-23.578913065130447
20
-6.4620155125168077
42
-0.28285469911954697
0
ENDSEC
0
SECTION
2
OBJECTS
0
DICTIONARY
5
C
100
AcDbDictionary
3
ACAD_GROUP
350
D
3
ACAD_MLINESTYLE
350
17
0
DICTIONARY
5
D
100
AcDbDictionary
0
DICTIONARY
5
1A
330
C
100
AcDbDictionary
0
DICTIONARY
5
17
100
AcDbDictionary
0
ENDSEC
0
EOF
